<svg xmlns:rdf="http://www.w3.org/1999/02/22-rdf-syntax-ns#" xmlns="http://www.w3.org/2000/svg" height="145mm" width="165mm" version="1.1" xmlns:cc="http://creativecommons.org/ns#" xmlns:dc="http://purl.org/dc/elements/1.1/" viewBox="0 0 584.64568 513.77952">
<g transform="matrix(-1 0 0 1 579.17 -542.43)">
<path fill-rule="evenodd" fill="#cff" d="m173.89 650.01c-79.555-23.086 2.0055 28.465-80.78 142.29-13.191 1.5883-79.026-32.946-79.954-31.209-3.8317 11.142 6.9293 30.454 33.372 49.922-0.30159-4.3162 246.54 122.24 343.48 233.7 20.1 19.258 26.401-46.923 3.6407-70.926-5.1341-10.592 100.93-49.01 105.92-44.93 48.452 39.643 48.235 45.495 52.397 35.87 9.4424-21.833-8.0425-50.442-21.584-68.139 36.484-120.45-10.239-286.99-278.01-338.37-4.0755-0.78196 59.056 41.902 128 123.94-5.8304 1.1659-11.469 3.082-17.497 3.476-33.883-25.83-71.921-36.621-107.29-45.298l-64.753-63.013z"/>
<path fill-rule="evenodd" fill="#9cf" d="m257.25 558.76c376.78 161.93 34.337 176.41 74.658 188.22 14.56 4.2672 208.78 35.6 203.47 116.47-0.43207 6.5869-9.4574 23.045-3.1444 30.306 11.281 12.974 7.3562 10.699 7.2011 15.138-0.36557 10.462-13.398 13.515-6.7109 46.933-0.59439 1.105 6.0535-2.4268-26.248-22.245 0 0-10.738-21.288-112.46 41.648-21.157 7.7763-14.439 51.734-3.7393 69.559-103.33-104.27-313.82-220.05-347.3-233.23-37.486-35.6-30.691-46.32-31.869-49.44-1.1288-3.9775 48.393 5.2944 57.927-1.31 0 0 48.22-76.383 64.941-86.928-2.7524-3.1672 9.683-38.902 5.0273-32.427-16.59 23.073 1.2069 61.139 41.372 66.867 1.4715 0.20987-8.9935-53.001-4.1287-62.019l1.0016-20.692c1.4511-29.978 11.481-50.09 13.322-51.039-5.2689 1.7574 40.924 162.41 62.051 146.12 12.51-15.581-20.746-59.606-4.9338-74.35 28.208-26.302 32.996 71.973 132.59 35.004-68.304-81.08-89.807-80.337-123.03-122.6z"/>
<g fill="none">
<path d="m256.43 639.39c35.371 8.6777 75.697 21.973 109.58 47.802m-150.1 102.93c-68.31-117.21-26.62-216.89-26.62-216.89 6.8985 9.1536 131.01 130.6 141.02 126.58 8.296-3.327 50.912-16.071 48.272-18.976-69.465-79.854-114.66-112.71-126.22-122.72 267.77 51.377 313.71 215.09 277.22 335.54 17.792 17.197 34.999 72.2 20.281 76.425-8.291 2.3799-1.1446-5.1097-53.379-41.595-3.671-2.5642-105.36 39.722-102.01 45.842 22.76 24.003 14.34 89.85-5.7594 70.593-96.93-111.43-323.58-221.18-342.18-233.98-26.44-19.47-37.202-38.78-33.37-49.93 0.92793-1.7371 43.996 3.1378 57.187 1.5495 34.973-59.91 63.643-101.96 106.11-113.86" stroke="#3267c9" stroke-linecap="round" stroke-width="6"/>
<path stroke-linejoin="round" d="m169.13 650.09c-12.529-3.6785-21.927-10.904-28.515-4.912-4.9958 4.9892-8.6621 21.633-5.6407 25.456" stroke="#3267c9" stroke-linecap="round" stroke-width="6"/>
</g>
<ellipse stroke-opacity="0" rx="42.508" ry="49.01" transform="matrix(-.98294 -.18394 -.14211 .98985 0 0)" cy="749.88" cx="-478.37" fill="#3267c9"/>
<ellipse stroke-opacity="0" rx="26.585" ry="42.557" transform="matrix(-.86472 .50225 .29173 .9565 0 0)" cy="950.48" cx="-262.57" fill="#3267c9"/>
<g stroke-linecap="round" fill="none">
<g stroke-width="6" stroke="#3267c9">
<path d="m363.92 834.29c74.371-16.228 141.26-43.324 131.72-65.696 7.2359 19.079-20.804 80.106-26.358 83.546-9.9145-2.4247-90.481-18.811-105.37-17.851z"/>
<path d="m482.3 859.45c-6.598 25.26-27.506 15.208-30.785 10.569"/>
<path d="m469.25 853.68 1.619 20.607"/>
</g>
<path stroke-linejoin="round" d="m516.64 764.45c-8.7575-30.244-31.453-10.315-18.437 29.951" stroke="#fff" stroke-width="11.5"/>
</g>
<path stroke-linejoin="round" d="m390.12 833.97c5.227-37.112-41.51-42.005-51.436-3.6944" stroke="#fff" stroke-linecap="round" stroke-width="15" fill="none"/>
</g>
</svg>
